<?xml version="1.0" encoding="utf-8"?>
<!-- Generator: Adobe Illustrator 17.0.0, SVG Export Plug-In . SVG Version: 6.00 Build 0)  -->
<!DOCTYPE svg PUBLIC "-//W3C//DTD SVG 1.1//EN" "http://www.w3.org/Graphics/SVG/1.1/DTD/svg11.dtd">
<svg version="1.1" id="Layer_1" xmlns="http://www.w3.org/2000/svg" xmlns:xlink="http://www.w3.org/1999/xlink" x="0px" y="0px"
	 width="800px" height="209px" viewBox="0 0 800 209" enable-background="new 0 0 800 209" xml:space="preserve">
<g>
	<path fill="#4B4B4D" d="M1,92c0.792-0.129,0.982-0.642,1.047-1.386c0.758-8.705,1.894-17.36,4.003-25.85
		c3.711-14.946,9.91-28.671,20.735-39.875C36.941,14.377,49.556,8.182,63.713,5.025c11.866-2.646,23.929-3.484,36.023-2.771
		c10.188,0.601,20.423,1.309,30.38,3.82c5.559,1.402,11.172,2.773,16.095,5.943c0.689,0.444,1.332,0.959,1.897,1.369
		c-2.848,11.451-5.575,22.419-8.242,33.143c-1.075,0.567-1.804,0.952-2.504,1.322c-7.734-2.469-15.533-4.19-23.599-5.122
		c-7.649-0.883-15.273-0.965-22.864-0.509c-8.057,0.484-16.019,2.154-23.03,6.538c-10.059,6.291-15.85,15.648-18.874,26.929
		c-2.195,8.19-3.292,16.5-3.181,24.983c0.11,8.461-0.212,16.915,1.109,25.348c1.469,9.379,3.965,18.424,9.35,26.251
		c5.329,7.747,12.827,12.863,22.215,14.684c9.027,1.751,18.112,1.559,27.196,0.298c1.95-0.271,3.932-0.315,5.826-0.458
		c0.871-3.875,1.14-29.947,0.424-39.353c-4.524-0.536-9.137-0.147-13.725-0.221c-4.486-0.072-8.973-0.016-13.334-0.016
		c-1.239-3.682-1.625-25.68-0.738-35.52c1.505-1.671,3.491-1.59,5.499-1.588c21.157,0.018,42.313,0.011,63.409,0.011
		c1.167,0.492,2.065,1.195,2.757,2.538c0,32.706,0,65.669,0,98.867c-1.697,2.904-5.054,3.945-7.929,5.311
		c-10.588,5.033-21.804,8.199-33.376,10.023c-8.398,1.324-16.896,1.501-25.342,0.984c-11.667-0.713-23.287-1.942-34.468-5.803
		c-12.282-4.241-23.058-10.796-31.609-20.617c-8.486-9.745-13.782-21.235-16.993-33.668c-2.143-8.297-3.619-16.736-4.071-25.32
		C1.974,121.677,1.784,121.157,1,121c0-1,0-2,0-3c0.77-0.117,1.052-0.566,1.049-1.338c-0.022-5.768-0.028-11.537-0.013-17.305
		C2.038,98.584,1.763,98.134,1,98C1,96,1,94,1,92z"/>
	<path fill="#A4A6A9" d="M1,98c0.763,0.134,1.038,0.584,1.036,1.357c-0.016,5.768-0.01,11.537,0.013,17.305
		C2.052,117.434,1.77,117.883,1,118C1,111.333,1,104.667,1,98z"/>
	<path fill="#4B4B4D" d="M394.147,81.943c21.115,0,41.742,0,62.398,0c1.168-1.084,0.598-2.499,0.601-3.74
		c0.041-20.658,0.032-41.317,0.024-61.975c-0.001-2.149-0.261-4.347,1.742-6.193c13.282,0,26.754,0,40.182,0
		c1.66,1.317,1.846,3.064,1.804,4.951c-0.063,2.831-0.016,5.664-0.016,8.496c0,57.644,0,115.287,0,172.931c0,1.659,0,3.317,0,4.721
		c-0.504,1.207-1.17,1.935-2.21,2.703c-12.907,0-26.038,0-39.17-0.002c-1.12-0.525-1.771-1.471-2.574-3.053
		c0-26.413,0-53.341,0-80.243c-11.733-0.987-59.182-0.601-62.696,0.584c0,27.007,0,54.12,0,80.726
		c-0.948,1.584-1.829,2.165-3.148,2.163c-12.162-0.021-24.324-0.026-36.485,0.006c-1.462,0.004-2.602-0.386-3.579-2.121
		c0-1.051,0-2.537,0-4.023c0-60.643-0.006-121.285,0.029-181.928c0.001-1.898-0.755-4.058,1.518-5.827c13.273,0,26.863,0,40.14,0
		c2.054,1.668,1.41,3.638,1.413,5.389c0.039,20.325,0.025,40.65,0.025,60.975C394.147,78.133,394.147,79.782,394.147,81.943z"/>
	<path fill="#4B4B4D" d="M702.19,194.088c-0.32,3.443-0.146,6.836-2.548,9.704c-9.261,0-18.561,0-28.388,0
		c-0.645-0.226-1.385-1.098-2.081-2.296c0-63.137,0-126.439,0-189.629c0.99-2.261,2.925-2.003,4.752-2.004
		c8.665-0.003,17.33-0.002,25.995-0.002c3.811,0,7.622,0,10.988,0c2.278,2.091,1.913,4.325,1.914,6.456
		c0.007,18.163,0.004,36.326,0.004,54.489c0,1.634,0,3.269,0,5.317c5.691-2.96,11.204-4.95,16.904-6.421
		c3.351-0.865,6.703-1.745,10.197-1.757c1.83-0.006,3.625-0.702,5.37-0.677c11.474,0.168,22.71,1.411,32.563,8.187
		c7.642,5.256,12.71,12.501,16.03,20.964c3.079,7.85,4.585,16.066,5.324,24.509c0.552,6.306,0.965,12.599,0.575,18.875
		c-0.828,13.315-1.776,26.608-6.687,39.294c-6.645,17.168-19.052,26.278-37.247,28.057c-3.963,0.387-7.904,0.916-11.871,0.669
		c-14-0.873-27.382-3.795-39.051-12.186C704.154,195.076,703.253,194.682,702.19,194.088z M712.03,167.428
		c9.311,5.344,15.489,5.869,26.328,5.803c8.535-0.052,13.737-5.149,15.766-11.783c1.267-4.145,1.594-8.368,2.151-12.617
		c1.173-8.948,0.943-17.833-0.391-26.681c-0.708-4.7-2.274-9.196-5.136-13.186c-3.001-4.183-7.125-6.39-12.017-6.906
		c-9.429-0.995-18.297,1.107-26.701,5.626C712.03,127.544,712.03,147.326,712.03,167.428z"/>
	<path fill="#4B4B4D" d="M523.784,72c13.502,0,26.982,0,40.289,0c1.947,1.849,1.732,4.029,1.731,6.182
		c-0.012,25.661-0.023,51.322,0.01,76.983c0.004,3.464-0.19,6.945,1.121,10.316c1.647,4.238,4.677,6.694,9.052,7.493
		c10.382,1.896,19.85-0.648,28.597-5.782c0.715-1.741,0.398-3.255,0.399-4.729c0.023-28.16,0.003-56.321,0.047-84.481
		c0.003-1.901-0.746-4.05,1.447-5.877c13.134,0,26.575,0,39.943,0c1.189,0.703,1.65,1.682,1.6,2.962
		c-0.039,0.998,0.002,1.999,0.002,2.999c0,39.991,0.01,79.982-0.029,119.973c-0.002,1.892,0.767,4.074-1.651,5.767
		c-8.606,0-17.566,0-26.81,0c-2.636-2.071-1.012-5.878-3.056-8.531c-5.129,3.246-10.825,5.686-16.685,7.757
		c-5.593,1.977-11.311,3.32-17.211,4.155c-4.802,0.679-9.593,1.032-14.369,0.666c-8.857-0.677-17.657-1.562-25.87-5.646
		c-9.734-4.839-15.479-12.667-18.249-22.857c-1.473-5.419-2.151-10.988-2.138-16.659c0.066-28.493,0.019-56.987,0.046-85.481
		C522.001,75.465,521.35,73.454,523.784,72z"/>
	<path fill="#4B4B4D" d="M299.908,70.971c9.696,0,18.981,0,27.853,0c1.471,0.741,2.397,1.425,2.923,2.538
		c0.966,15.698,0.546,28.616-1.237,32.525c-9.551,0-19.312,0-28.785,0c-1.019,1.466-0.716,2.656-0.717,3.78
		c-0.019,16.33,0.196,32.664-0.111,48.989c-0.131,6.93,4.007,13.804,13.805,14.213c5.304,0.222,10.626,0.04,15.658,0.04
		c1.438,0.774,1.822,1.778,1.82,3.048c-0.016,8.817-0.009,17.635-0.009,26.288c-2.575,3.14-6.242,2.711-9.301,3.438
		c-8.815,2.095-17.858,1.692-26.791,0.987c-5.203-0.41-10.388-1.684-15.234-3.865c-13.296-5.983-19.889-16.65-21.9-30.771
		c-0.992-6.962-0.765-13.909-0.798-20.87c-0.063-13.33-0.004-26.662-0.037-39.992c-0.004-1.619,0.356-3.294-0.462-5.179
		c-6.738,0-13.519,0-19.663,0c-2.041-1.081-2.082-2.389-2.078-3.767c0.02-7.828,0.009-15.657,0.009-23.22
		c0.654-1.172,1.334-1.826,2.391-2.063c6.406-1.438,12.809-2.893,19.726-4.459c0.205-6.336,0.032-12.777,0.099-19.211
		c0.066-6.275-0.181-12.561,0.157-18.676c3.808-1.057,34.969-1.325,42.249-0.417c0.934,3.879,0.287,8.018,0.407,12.081
		c0.117,3.996,0.026,7.998,0.026,11.997C299.908,62.532,299.908,66.658,299.908,70.971z"/>
	<path fill="#4B4B4D" d="M179.021,73.602c1.746-1.968,3.37-2.49,5.309-2.483c10.985,0.037,21.969,0.044,32.954-0.008
		c1.748-0.008,3.254,0.347,4.682,1.677c0,43.111,0,86.344,0,129.357c-1.587,1.641-3.304,1.887-5.203,1.878
		c-10.485-0.047-20.971,0.013-31.456-0.038c-5.004-0.024-6.276-1.398-6.278-6.642c-0.014-36.948-0.008-73.897-0.008-110.845
		C179.021,82.183,179.021,77.869,179.021,73.602z"/>
	<path fill="#4B4B4D" d="M224.06,37.732c0.223,11.679-9.533,23.175-24.007,23.126c-13.242-0.045-23.832-10.291-23.823-23.475
		c0.01-13.543,11.682-23.701,24.423-23.408C213.864,14.279,224.515,24.929,224.06,37.732z"/>
</g>
</svg>
