<?xml version="1.0" encoding="utf-8"?>
<!-- Generator: Adobe Illustrator 17.0.0, SVG Export Plug-In . SVG Version: 6.00 Build 0)  -->
<!DOCTYPE svg PUBLIC "-//W3C//DTD SVG 1.1//EN" "http://www.w3.org/Graphics/SVG/1.1/DTD/svg11.dtd">
<svg version="1.1" id="Layer_1" xmlns="http://www.w3.org/2000/svg" xmlns:xlink="http://www.w3.org/1999/xlink" x="0px" y="0px"
	 width="72px" height="72px" viewBox="0 0 72 72" enable-background="new 0 0 72 72" xml:space="preserve">
<g>
	<defs>
		<circle id="SVGID_1_" cx="36" cy="36" r="35"/>
	</defs>
	<clipPath id="SVGID_2_">
		<use xlink:href="#SVGID_1_"  overflow="visible"/>
	</clipPath>
	<g clip-path="url(#SVGID_2_)">
		<path fill="#BB2226" d="M71,56.125c0,4.958,0,9.917,0,14.875c-23.333,0-46.667,0-70,0c0-4.958,0-9.917,0-14.875
			c1.402-3.792,1.402-7.583,0-11.375C1,30.167,1,15.583,1,1c23.333,0,46.667,0,70,0c0,10.5,0,21,0,31.5
			c-2.567,0.079-2.165-2.693-3.925-3.937c-0.917-0.454-2.167-1.155-3.536-1.644c-1.569,0.371-2.932,1.163-4.264,2.013
			c-1.194,0.779-2.2,1.942-3.679,1.983c-2.261-1.186-1.405-3.796-2.701-5.37c-1.616,2.685-1.731,5.26-0.436,9.586
			c1.721-0.096,1.508-2.453,3.422-2.696c1.863,0.032,2.364,2.568,4.641,3.202c0.118-3.155-1.278-6.87,2.683-8.637
			c4.152,1.116,3.007,5.34,5.212,8.648c0.333,0.393,1.662,1.021,2.583,2.102c0,0.875,0,1.75,0,2.625
			c-1.743,1.306-2.133,3.349-3.038,5.62C69.736,48.933,67.86,53.206,71,56.125z"/>
		<path fill="#FDF7F7" d="M71,37.75c-3.445,0-3.445,0-5.18-1.22c0.029-2.961-0.813-5.803-1.817-8.611
			c-0.152-0.426-0.339-0.768-0.878-0.669c-1.75,1.429-3.5,1.875-5.25,0c-0.064-0.828,0.5-0.874,1.094-0.874
			c3.283-0.001,6.565-0.001,9.848-0.001c0.959,1.544,1.542,3.173,1.319,5.032c-0.07,0.586,0.036,1.157,0.863,1.093
			C71,34.25,71,36,71,37.75z"/>
		<path fill="#FDF8F7" d="M71,56.125c-1.012,0-2.024,0-3.243,0c-0.53-1.312-0.192-2.747-0.245-4.131
			c-0.055-1.429-0.012-2.861-0.012-4.179c-0.704-0.747-1.473-0.287-2.157-0.444c-0.874-0.655-0.392-1.518-0.342-2.316
			c0.615-0.607,1.379-0.151,2.122-0.323c0.862-1.238,0.028-2.75,0.559-4.16c1.042-0.485,2.204-0.048,3.317-0.198
			C71,45.625,71,50.875,71,56.125z"/>
		<path fill="#F4DADA" d="M1,44.75c0.435,0,0.87,0,1.306,0c0.148,0.227,0.423,0.454,0.425,0.683
			C2.758,48.896,2.75,52.36,2.75,55.661C2.166,56.397,1.537,56.014,1,56.125C1,52.333,1,48.542,1,44.75z"/>
		<path fill="#FEFAFA" d="M34.986,56.125c-1.752,0-3.205,0-5.094,0c-0.006-1.81-0.014-3.64-0.017-5.471
			c-0.003-1.871-0.001-3.741-0.001-5.968c2.028,0.321,3.998-0.61,5.742,0.884c0.959-1.117,2.442-1.115,3.119-1.634
			c1.933-0.231,2.085,1.566,3.316,1.691c1.446-0.337,2.473-1.688,4.357-1.823c0.98,0.528,2.166,1.167,3.435,1.85
			c0,3.39,0,6.693,0,10.234c-1.479,0-3.129,0-5.097,0c0-2.428,0-4.977,0-7.551c-0.693,0-1.087,0-1.627,0c0,2.218,0,4.361,0,6.357
			c-0.558,0.558-0.969,0.969-1.309,1.309c-1.632,0-3.193,0-4.888,0c0-2.55,0-4.983,0-7.156c-0.429-0.734-0.902-0.56-1.645-0.629
			C35.18,50.863,35.082,53.509,34.986,56.125z"/>
		<path fill="#FEFBFB" d="M21.978,25.128c0,1.164,0,2.322,0,3.457c-0.845,0.845-1.668,1.668-2.679,2.679
			c3.647,0.649,1.783,4.335,3.748,6.284c-2.026,0-3.867,0-6.071,0c-0.735-0.412-1.248-1.291-1.117-2.597
			c0.157-1.562-0.696-2.32-2.223-2.509c-0.871,1.678,0.03,3.474-0.615,5.196c-1.827,0-3.679,0-5.713,0c0-4.823,0-9.687,0-14.658
			c3.798,0,7.553,0,11.468,0C19.64,23.545,20.962,23.735,21.978,25.128z"/>
		<path fill="#FEFBFB" d="M57.875,27.25c1.75,0,3.5,0,5.25,0c0.008,0.71,0.171,1.48-0.616,1.924
			c-1.439,0.812-1.15,2.178-1.097,3.799c1.385,0.876,1.883,2.62,2.935,4.414c-2.226,0.669-4.202,0.195-6.072,0.393
			c-0.88-1.834-1.695-3.533-2.64-5.503c-0.803,1.815-0.069,3.554-0.542,5.311c-1.498,0-3.06,0-5.036,0
			c-0.126-2.214-0.038-4.632-0.054-7.041C49.988,28.091,50,25.636,50,23.029c1.682,0,3.238,0,5.106,0c0,2.366,0,4.906,0,8.306
			C56.356,29.491,57.115,28.37,57.875,27.25z"/>
		<path fill="#FDF8F8" d="M14.125,47.804c1.184-1.179,2.175-2.166,3.019-3.006c4.832-1.019,4.832-1.019,9.799,1.008
			c0.416,0.768,1.024,1.442,1.131,2.187c0.182,1.274,0.05,2.593,0.05,3.867c-0.577,2.181-2.134,3.7-4.079,4.168
			c-2.585,0.621-5.354,0.139-7.776-0.944c-1.333-0.596-2.014-2.23-2.126-3.81C14.052,49.98,14.125,48.675,14.125,47.804z"/>
		<path fill="#FDF9F8" d="M32.855,37.75c-2.354,0-4.533,0-6.847,0c-0.884-1.004-1.832-2.082-3.069-3.489c0-1.171,0-2.897,0-4.728
			c0.84-1.387,2.242-2.273,4.513-3.158c0.669,0,2.109,0.068,3.54-0.019c1.457-0.089,2.398,1.49,3.76,0.89
			C38.087,32.09,37.579,34.902,32.855,37.75z"/>
		<path fill="#FCF4F2" d="M64.875,54.813c-0.615,0.615-0.922,0.922-1.209,1.209c-1.285,0-2.55,0-3.774,0
			c-0.214-0.608-0.391-1.112-0.646-1.839c-0.527,0.711-0.946,1.277-1.198,1.616c-2.483,0.82-4.393,0.17-6.188-0.894
			c0-1.582,0-3.138,0-4.666c2.048-1.694,4.549-1.813,7.556-2.354c-4.191-0.628-4.191-0.628-6.408,0.348
			c-0.668-0.995-0.318-2.088-0.301-3.134c0.628-0.86,1.576-0.174,2.391-0.561c4.709-2.24,10.509,1.97,9.812,6.368
			C64.691,52.286,64.875,53.729,64.875,54.813z"/>
		<path fill="#FEFBFA" d="M14.125,47.375c-0.726,0-1.453,0-2.45,0c-0.413,2.787,0.014,5.652-0.269,8.607c-1.602,0-3.165,0-5.025,0
			c0-2.679,0-5.511,0-8.488c-0.977,0-1.658,0-2.206,0c-0.848-0.885-0.58-1.7-0.306-2.643c0.639-0.055,1.326-0.113,2.32-0.198
			c0-1.335,0-2.708,0-4.179c1.857,0,3.415,0,5.278,0c0,1.364,0,2.737,0,4.124c0.985,0.108,1.672,0.182,2.333,0.255
			C14.4,45.657,14.008,46.547,14.125,47.375z"/>
		<path fill="#FDF7F6" d="M48.134,34.612c0,0.982,0,1.965,0,3.036c-2.416,0-4.722,0-6.991,0c-0.945-1.001-1.928-2.043-3.304-3.501
			c0-1.003,0-2.728,0-4.628c0.726-1.416,2.263-2.142,4.142-3.066c1.698,0,3.842,0,5.964,0c0.57,1.015,0.219,2.031,0.284,3.065
			c-1.273,0.85-2.81-0.046-4.238,0.614c0,1.214,0,2.485,0,3.796c0.373,0.373,0.785,0.786,1.197,1.198
			C46.145,35.062,47.255,35.496,48.134,34.612z"/>
		<path fill="#C02F31" d="M12.458,28.831c0-0.775,0-1.448,0-2.216c1.527-0.366,2.999-0.659,4.161,0.964
			C15.723,29.55,14.098,29.028,12.458,28.831z"/>
		<path fill="#BE2D2E" d="M21.854,52.549c-0.537,0-0.928,0-1.458,0c0-1.727,0-3.378,0-5.097c0.537,0,0.928,0,1.458,0
			C21.854,49.179,21.854,50.829,21.854,52.549z"/>
		<path fill="#BF3330" d="M29.115,35.149c0-1.765,0-3.31,0-4.974c0.323-0.393,0.824-0.407,1.68-0.002
			C30.347,31.745,31.764,33.736,29.115,35.149z"/>
		<path fill="#C74647" d="M57.591,53.865c-0.537-0.72-0.94-1.261-1.346-1.806c0.753-0.913,1.673-1.699,3.168-0.992
			C60.119,52.485,58.919,52.903,57.591,53.865z"/>
	</g>
</g>
</svg>
