<?xml version="1.0" encoding="utf-8"?>
<!-- Generator: Adobe Illustrator 17.0.0, SVG Export Plug-In . SVG Version: 6.00 Build 0)  -->
<!DOCTYPE svg PUBLIC "-//W3C//DTD SVG 1.1//EN" "http://www.w3.org/Graphics/SVG/1.1/DTD/svg11.dtd">
<svg version="1.1" id="Layer_1" xmlns="http://www.w3.org/2000/svg" xmlns:xlink="http://www.w3.org/1999/xlink" x="0px" y="0px"
	 width="72px" height="72px" viewBox="0 0 72 72" enable-background="new 0 0 72 72" xml:space="preserve">
<g>
	<defs>
		<circle id="SVGID_1_" cx="36" cy="36" r="35"/>
	</defs>
	<clipPath id="SVGID_2_">
		<use xlink:href="#SVGID_1_"  overflow="visible"/>
	</clipPath>
	<g clip-path="url(#SVGID_2_)">
		<path fill="#044929" d="M1,71C1,47.667,1,24.333,1,1c23.333,0,46.667,0,70,0c0,23.333,0,46.667,0,70C47.667,71,24.333,71,1,71z
			 M41.357,25.455c-0.157,0.709-0.174,1.259,0.438,1.319c0.875,0.085,1.596,0.637,2.438,0.711c1.027,0.091,1.471,0.685,1.477,1.593
			c0.038,5.884,0.446,11.784-0.35,17.642c-0.377,2.774-2.075,4.627-4.794,5.423c-2.722,0.797-5.424,0.648-8.022-0.488
			c-2.406-1.052-3.75-3.051-3.842-5.579c-0.165-4.539-0.046-9.088-0.046-13.677c2.07-2.651,5.173-3.778,8.052-5.203
			c-0.717-1.538-1.386-2.939-2.441-4.105c-0.973,0.511-1.337,1.91-2.824,1.604c1.462-1.725,2.866-3.381,4.413-5.207
			c1.199,1.772,1.985,3.299,1.144,5.187c0.807,1.808,0.203,4.321,2.631,5.309c0.57-0.331,1.215-0.553,1.268-1.504
			c-1.387-0.374-1.924-1.579-2.44-2.817c0.178-0.308,0.35-0.605,0.495-0.855c-0.782-2.117-0.593-4.537-2.354-6.007
			c0.272-0.909,1.126-1.202,1.25-2.116c-5.548,0.768-10.961,1.518-15.872,2.198C17.656,23.26,13.63,27.34,9.761,31.261
			c4.581-0.374,9.468-1.092,14.422-0.907c-2.099,0.281-4.198,0.562-6.368,0.853c-0.006,1.53,0.353,2.864,1.245,4.064
			c1.786-0.816,3.406-1.845,5.389-2.105c0,1.912-0.014,3.715,0.004,5.518c0.017,1.801,0.1,3.602,0.09,5.403
			c-0.008,1.522-0.006,3.068,0.379,4.519c1.077,4.052,3.479,5.942,8.476,6.697c2.071,0.313,4.144-0.056,6.39,0.141
			c0.129-0.522,0.773-0.458,1.312-0.63c4.23-1.351,6.468-4.2,6.861-8.684c0.454-5.18,0.208-10.372,0.278-15.558
			c0.014-1.002,0.102-1.95,0.679-2.854c1.237-0.335,2.488-0.674,3.801-1.03c0.024-0.409,0.234-0.778-0.202-1.209
			C48.865,25.651,45.145,25.571,41.357,25.455z"/>
		<path fill="#F3F5F3" d="M41.357,25.455c3.788,0.116,7.508,0.196,11.158,0.022c0.437,0.431,0.227,0.8,0.202,1.209
			c-1.313,0.356-2.564,0.695-3.801,1.03c-0.576,0.904-0.665,1.851-0.679,2.854c-0.07,5.186,0.176,10.378-0.278,15.558
			c-0.393,4.484-2.63,7.333-6.861,8.684c-0.538,0.172-1.183,0.108-1.312,0.63c-2.246-0.197-4.318,0.172-6.39-0.141
			c-4.998-0.755-7.4-2.645-8.476-6.697c-0.386-1.451-0.388-2.997-0.379-4.519c0.01-1.801-0.073-3.602-0.09-5.403
			c-0.017-1.803-0.004-3.607-0.004-5.518c-1.982,0.26-3.603,1.289-5.389,2.105c-0.893-1.2-1.251-2.534-1.245-4.064
			c2.17-0.291,4.269-0.572,6.368-0.853c-4.954-0.185-9.841,0.533-14.422,0.907c3.869-3.921,7.896-8.001,12.214-12.377
			c4.911-0.68,10.324-1.43,15.872-2.198c-0.123,0.914-0.978,1.208-1.25,2.116c1.761,1.469,1.572,3.89,2.354,6.007
			c-0.145,0.25-0.317,0.547-0.495,0.855c0.516,1.238,1.053,2.443,2.44,2.817c-0.053,0.951-0.698,1.173-1.268,1.504
			c-2.428-0.989-1.824-3.501-2.631-5.309c0.841-1.888,0.055-3.416-1.144-5.187c-1.547,1.825-2.95,3.481-4.413,5.207
			c1.487,0.305,1.851-1.093,2.824-1.604c1.055,1.166,1.724,2.566,2.441,4.105c-2.88,1.425-5.982,2.552-8.052,5.203
			c0,4.589-0.118,9.138,0.046,13.677c0.092,2.528,1.436,4.527,3.842,5.579c2.598,1.136,5.3,1.285,8.022,0.488
			c2.718-0.796,4.417-2.649,4.794-5.423c0.797-5.858,0.389-11.758,0.35-17.642c-0.006-0.909-0.45-1.502-1.477-1.593
			c-0.842-0.075-1.563-0.627-2.438-0.711C41.183,26.715,41.2,26.164,41.357,25.455z"/>
	</g>
</g>
</svg>
